<svg width="58" height="58" viewBox="0 0 58 58" fill="none" xmlns="http://www.w3.org/2000/svg">
<g id="Group 31">
<rect id="Rectangle 25" width="58" height="58" rx="12" fill="#F8DEBD"/>
<g id="Group 14">
<path id="Vector" d="M35.9355 13.3359H22.6986C21.9589 13.3359 21.3359 13.9589 21.3359 14.6986V29.8821C21.3359 30.6218 21.9589 31.2447 22.6986 31.2447H35.9355C36.6752 31.2447 37.2981 30.6218 37.2981 29.8821V14.6986C37.2981 13.9589 36.6752 13.3359 35.9355 13.3359ZM26.0078 25.4049H22.8932V24.2369H26.0078V25.4049ZM31.069 25.4049H27.5651V24.2369H31.069V25.4049ZM35.7408 25.4049H32.6263V24.2369H35.7408V25.4049Z" fill="#E79B38"/>
<path id="Vector_2" d="M37.4928 11H21.1413C19.9733 11 19 11.9733 19 13.1413V32.1402C19 33.2692 19.4283 34.3204 20.168 35.1379L22.1535 37.3181L22.1924 37.3571C23.5551 38.8365 23.7108 38.9922 24.0612 38.9922H27.1758V44.1313L27.7208 46H30.9522L31.4972 44.1313V39.0311H34.6118C34.9622 39.0311 35.1179 38.8754 36.4805 37.396L38.505 35.1379C39.2447 34.3204 39.673 33.2303 39.673 32.1402V13.1413C39.634 11.9733 38.6607 11 37.4928 11ZM24.8398 37.8632V36.6952H27.1758V37.8632H24.8398ZM29.901 42.9244V40.5884H28.733V42.9244H28.3437V36.6952H30.2903V42.9244H29.901ZM28.5773 44.871L28.3437 44.0923H30.2514L30.0178 44.871H28.5773ZM31.4583 36.6952H33.7942V37.8632H31.4583V36.6952ZM38.4661 32.1402C38.4661 32.9577 38.1546 33.7364 37.6096 34.3593L35.624 36.5395L35.5851 36.5784C35.3904 36.812 35.1568 37.0456 34.9622 37.2403V36.0723C34.9622 35.7608 34.6897 35.4883 34.3782 35.4883H24.2558C23.9444 35.4883 23.6719 35.7608 23.6719 36.0723V37.2403C23.4772 37.0067 23.2436 36.7731 23.0489 36.5784L21.0245 34.3593C20.4794 33.7364 20.168 32.9577 20.168 32.1402V13.1413C20.168 12.5962 20.5962 12.168 21.1413 12.168H37.4928C38.0378 12.168 38.4661 12.5962 38.4661 13.1413V32.1402Z" fill="#E79B38"/>
<path id="Vector_3" d="M25.0125 32.5845C24.4652 33.1318 24.2926 33.8466 24.6271 34.1811C24.9616 34.5156 25.6765 34.3431 26.2238 33.7957C26.7711 33.2484 26.9437 32.5335 26.6092 32.1991C26.2747 31.8646 25.5599 32.0371 25.0125 32.5845Z" fill="#E79B38"/>
<path id="Vector_4" d="M32.0203 32.5845C31.473 33.1318 31.3005 33.8466 31.6349 34.1811C31.9694 34.5156 32.6843 34.3431 33.2316 33.7957C33.779 33.2484 33.9515 32.5335 33.617 32.1991C33.2825 31.8646 32.5677 32.0371 32.0203 32.5845Z" fill="#E79B38"/>
<path id="Vector_5" d="M28.5164 32.5845C27.9691 33.1318 27.7965 33.8466 28.131 34.1811C28.4655 34.5156 29.1804 34.3431 29.7277 33.7957C30.275 33.2484 30.4476 32.5335 30.1131 32.1991C29.7786 31.8646 29.0638 32.0371 28.5164 32.5845Z" fill="#E79B38"/>
</g>
</g>
</svg>
 


 