<svg width="175" height="74" viewBox="0 0 175 74" fill="none" xmlns="http://www.w3.org/2000/svg">
<g id="Group 11">
<path id="Vector 1" d="M37.1969 31.2276C20.8911 32.8764 1 51.2276 1 51.2276V73.5H174V26.2276C174 26.2276 160.59 31.89 151.643 31.2276C133.463 29.8816 135.591 3.88336 117.575 1.22759C93.647 -2.29971 93.8029 36.3114 69.6677 38.2276C56.7036 39.2569 50.1325 29.9196 37.1969 31.2276Z" fill="url(#paint0_linear_1_495)"/>
<path id="Vector 2" d="M1 51.2276C1 51.2276 20.8911 32.8764 37.1969 31.2276C50.1325 29.9196 56.7036 39.2569 69.6677 38.2276C93.8029 36.3114 93.647 -2.29971 117.575 1.22759C135.591 3.88336 133.463 29.8816 151.643 31.2276C160.59 31.89 174 26.2276 174 26.2276" stroke="#F3A53F" stroke-linecap="round"/>
</g>
<defs>
<linearGradient id="paint0_linear_1_495" x1="87.5" y1="1" x2="87.5" y2="73.5" gradientUnits="userSpaceOnUse">
<stop stop-color="#F8DEBD"/>
<stop offset="1" stop-color="#FBEBD6" stop-opacity="0"/>
</linearGradient>
</defs>
</svg>
