<svg width="175" height="72" viewBox="0 0 175 72" fill="none" xmlns="http://www.w3.org/2000/svg">
<g id="Group 29">
<path id="Vector 3" d="M36.5268 31.7124C22.6163 29.5678 13.3533 31.143 1 37.7541V71.5H174V1C163.142 5.71892 157.566 9.70855 146.196 13.0836C127.836 18.5336 113.978 8.36761 97.2827 17.6149C82.7445 25.6674 86.5382 47.5518 69.994 49.8377C55.2005 51.8817 51.2849 33.9876 36.5268 31.7124Z" fill="url(#paint0_linear_1_675)" fill-opacity="0.4"/>
<path id="Vector 4" d="M1 37.7541C13.3533 31.143 22.6163 29.5678 36.5268 31.7124C51.2849 33.9876 55.2005 51.8817 69.9941 49.8377C86.5382 47.5518 82.7445 25.6674 97.2827 17.6149C113.978 8.36761 127.836 18.5336 146.196 13.0836C157.566 9.70855 163.142 5.71892 174 1" stroke="#CA6B6E"/>
</g>
<defs>
<linearGradient id="paint0_linear_1_675" x1="88.0058" y1="-19" x2="88.0059" y2="68" gradientUnits="userSpaceOnUse">
<stop stop-color="#DA8184"/>
<stop offset="1" stop-color="#CA6B6E" stop-opacity="0"/>
</linearGradient>
</defs>
</svg>
